<svg xmlns="http://www.w3.org/2000/svg" viewBox="0 0 155.73 230.68"><defs><style>.cls-1{fill:#90f;}.cls-1,.cls-2,.cls-3,.cls-4{stroke:#000;stroke-miterlimit:10;}.cls-2{fill:#f90;}.cls-3{fill:#cf0;}.cls-4{fill:#09f;}</style></defs><polygon class="cls-1" points="139.92 109.93 142.66 117.64 150.04 114.13 146.53 121.51 154.24 124.25 146.53 126.99 150.04 134.38 142.66 130.87 139.92 138.57 137.18 130.87 129.79 134.38 133.31 126.99 125.6 124.25 133.31 121.51 129.79 114.13 137.18 117.64 139.92 109.93"/><path class="cls-2" d="M7122.22,7624.45c-2.29,15.37-9.41,27.27-25.24,28v.08c15.83.7,23,12.6,25.24,28,2.37-15.84,10.23-28,26.74-28C7132.45,7652.46,7124.59,7640.3,7122.22,7624.45Z" transform="translate(-7009.04 -7453.17)"/><path class="cls-3" d="M7067.52,7456.37c-5.26,33.22-21.61,58.92-58,60.45,0,.05,0,.11,0,.16,36.34,1.53,52.68,27.23,57.94,60.45,5.42-34.26,23.48-60.53,61.36-60.53C7091,7516.9,7072.94,7490.62,7067.52,7456.37Z" transform="translate(-7009.04 -7453.17)"/><path class="cls-4" d="M7084.23,7616c-.88,4.64-3.61,8.23-9.68,8.44v0c6.07.21,8.8,3.8,9.68,8.43.9-4.78,3.92-8.45,10.25-8.45C7088.15,7624.45,7085.13,7620.79,7084.23,7616Z" transform="translate(-7009.04 -7453.17)"/></svg>