<svg xmlns="http://www.w3.org/2000/svg" viewBox="0 0 946.57 581.3"><defs><style>.cls-1{fill:#fef001;}.cls-2{fill:#f60;}.cls-2,.cls-3,.cls-4{stroke:#000;stroke-miterlimit:10;}.cls-3{fill:lime;}.cls-4{fill:#00ffbc;}</style></defs><path class="cls-1" d="M54,435.43c2.46-20.64,7.29-38.51,19-53.17,18.4-23,25.15-49.57,27.46-78a247.9,247.9,0,0,1,5.3-35c2.8-12.36,7.37-24.17,16.82-32.89,18.55-17.12,26.93-38.78,30.77-63,2.19-13.81,4.75-27.6,9-41a75.85,75.85,0,0,1,23.48-35,58.52,58.52,0,0,0,19-31.45c1-4.21,2.68-6.76,7.33-7.91,6.87-1.7,12.38-6.36,18.11-10.36,10-7,21-8.52,32.63-5.28q16.74,4.68,33.26,10.17c18.36,6.15,35.83,5.69,53.3-3.79,14.2-7.7,29.27-8.46,45.19-3.61s31.62,10.55,48.32,12.32c8.35.88,16.73-.22,23.36-4.85,23.36-16.34,47.74-12.38,72.49-5,10.07,3,20,6.53,30.27,8.69,12.59,2.64,25.68,3.14,36.64-3.2,21.27-12.28,41.84-9.53,63.07-1.23a187.1,187.1,0,0,0,26.28,8.34A45.25,45.25,0,0,0,729.19,55c8.73-5.06,17.59-9.71,27.89-11.16,11-1.54,21.34,1,31.76,3.59,11.27,2.82,22.52,5.7,33.8,8.46,12.34,3,24.66,2.38,36.05-3,22-10.38,44-9.58,66.57-2.5,11.71,3.68,23.6,6.83,36.07,6,3.58-.24,3.42,1.29,2.61,3.94A82.22,82.22,0,0,1,950.3,86.31c-16.63,21.56-22.49,46.47-24.91,72.88-1.88,20.49-4.47,40.95-13.72,59.85-3.3,6.73-8.63,11.53-14.2,16.07-18.75,15.29-26.15,35.92-29,59-1.62,13-3.17,26.06-6.34,38.86-3,12.08-7.13,23.79-15.55,32.92-17.14,18.59-24.89,40.85-27.58,65.29-.5,4.62-2.5,6.78-6.39,8.8-15.34,8-31,10.38-47.58,4.34-5.14-1.87-10.64-2.75-15.79-4.57-18.57-6.59-37-7-55,1.47-18.55,8.72-37.18,8-56.33,2.07-13.38-4.14-27.13-7-40.65-10.74-11.91-3.27-22.9-1.7-33.33,4.91-7.4,4.68-15,8.94-23.81,10.65-9.89,1.92-19.16-.51-28.35-3.45C500,441,488.38,437.08,476.83,433c-15.23-5.43-30.53-5.78-44.6,2.15-23,13-45.44,13.14-68.87,1.36-8.72-4.39-18.56-6.34-28.49-7.55-10.16-1.23-19.48.7-27.46,6.44-16.63,11.95-34.25,13.16-53.15,7.1-10.21-3.27-20.55-6.16-30.85-9.17-13.51-3.95-26.77-2.77-38.8,4.24C165,449,144.9,447.89,124.32,441.3c-6.26-2-12.48-4.16-18.75-6.14C88.84,429.86,72.07,425.4,54,435.43Z" transform="translate(-41.19 -25.66)"/><path d="M151.19,122.54l50.07-.05c-2.61,6.15-5.1,11.68-7.06,15.91A27.9,27.9,0,0,1,185,127.79H145.52a58.65,58.65,0,0,0,6.53,23.61c-11.33,14.42-21.44,13.64-22.24,13.54l-6,30.71c11.89-2.9,31.11-6,45.68-21.75a122.41,122.41,0,0,0,29.71,20.37H227.3l6.18-43.89c-2.15-.41-4.68-.82-7.43-1.28a231,231,0,0,0,12.76-27.9h0c1.38-3.77,2.59-7.52,3.52-11.16h-.06c.1-.44.18-.88.24-1.34.44-3.15.87-6.29,1.3-9.44l-87.89.13Q153.57,111,151.19,122.54Z" transform="translate(-41.19 -25.66)"/><polygon points="100.78 23.73 38.78 23.77 35.62 53.99 97.61 53.95 100.78 23.73"/><polygon points="95.12 64.01 33.12 64.08 29.94 88.81 91.94 88.74 95.12 64.01"/><path d="M104.9,122.89c-20,36.75-36,34.23-37.83,34.26l-6,37.73c17.14-4.18,56.92-19.37,72.14-71.95Z" transform="translate(-41.19 -25.66)"/><path d="M251.52,38h0q.53-3.75,1-7.5l-56.45.06q.78-2.48,1.4-4.89H160.94c-7.48,19.24-16.18,36.86-16.18,36.86L142,81.67h28.94a289.79,289.79,0,0,0,15.7-28H210c-3.19,7.37-6.08,13.58-7.86,17.33L184.22,71l3.15,23,10.14,0v0h28.94s5-7.7,10.87-18.55a180,180,0,0,0,12.47-27.13A25.75,25.75,0,0,0,251,41.57l.49-3.58Z" transform="translate(-41.19 -25.66)"/><path d="M326.38,60.21l111-.05L440.59,37l-110.24.09V26.91H301.74V37.08l-22.69,0-4.73,23.14H295.2c-15.66,24.25-24.59,21.4-31,22.64l-6,37.72a98.89,98.89,0,0,0,25.51-10.25l-14.31,83.9h23.07l10.13-15.77c.78-4.57,1.62-9.54,2.52-14.81l94.43-.4-1.32,9.42-22.68-.07,3.15,23,16.31.06v0h19.23l8.45-16c3.21-23.08,7.89-56.21,12.22-86.95H435l3.19-23.2-116.29.54Q324.29,65.42,326.38,60.21Zm-17.32,80.3c.8-4.65,1.61-9.41,2.44-14.22l93.29-.4-2,14.19Zm99-37.8-92.59.43q.85-5,1.7-9.92l92.27-.38Z" transform="translate(-41.19 -25.66)"/><path d="M715.93,265.57a112.36,112.36,0,0,0,4.68-10.23l111-.05,3.19-23.2-110.24.09V222H696V232.2l-22.68,0-4.73,23.14h20.88c-15.67,24.26-24.59,21.41-31,22.64l-6,37.73a98.94,98.94,0,0,0,32-14.35l-12.5,88h19.22l8.45-15.78c.64-4.57,1.35-9.54,2.09-14.81l92.07-.39-1.32,9.41-21.52-.07,3.15,23,15.15.05v0h19.23l8.44-16c3.2-23,7.86-55.95,12.18-86.59h0l.61-4.43c.39-2.76.77-5.5,1.16-8.21h0L832.28,265ZM705,335.63c.66-4.65,1.34-9.41,2-14.22l92-.39-2,14.19Zm97.27-37.8-91.94.43c.45-3.2.91-6.38,1.36-9.54l91.91-.39Z" transform="translate(-41.19 -25.66)"/><path d="M224.12,249.75l2.46-19.46-53.15.06,1.13-8.22-62,.08-1.13,8.22-48.62.06L61,249.9h.14l-20,140.69H60.41l8.45-15.77c4.69-33.24,12.49-87.6,17.78-124.94l30.42,0-.83,5.84-14.53,0-2,11.6h4.07C96.94,279,93.19,277.67,90.57,278.17l-2.31,14.48A37.52,37.52,0,0,0,114.19,270l-3.45,24.29h2.5a17,17,0,0,1-3.22,3.51l-22.18,0-.48,5.29L81.45,344.7h8.19v.12l19.41,0c-11.31,11.78-26.42,14.88-31.75,15.91l-4.79,30c14.25-3.47,47.64-7.05,63.42-44.92h1a114.28,114.28,0,0,0,17.33,44.34H210.1l2.11-16.63c-5.61-.79-14.82-2.05-24.23-5.61l10.11,0a29.63,29.63,0,0,0,1.27,2.68h9.39l2.07-14.65c-4.35-.84-4.86-3-7.76-9h-9.64a70.06,70.06,0,0,0,.83,7.51l-16.4.07c.43-3.06.9-6.34,1.38-9.74h4.58v.09h13l5.71-10.66c1.33-9.45,3-21.42,4.83-34H207l.31-2.44-77.25.1a22.37,22.37,0,0,0,2.65-5.17h10.65l2.41-17.13c-4.51-.87-5.49-2.94-8-8.29l7.2,0,2-11.6-19.42,0c.27-1.95.55-3.9.83-5.82l52-.05-.84,5.89-18.11,0-2,11.6,11.46,0C164,279,160.23,277.67,157.61,278.17l-2.31,14.48A37.44,37.44,0,0,0,176.15,279L174,294.33h8.52l3.75-7c.8-5.64,1.79-12.65,2.85-20.08h.27c1.3,15.61,6.79,25.4,6.79,25.4h11l2.42-17.13c-4.52-.87-5.5-2.94-8-8.3h3.1l2-11.6-15.83,0q.42-3,.84-5.87Zm-95.35,66.64-26.12,0c.21-1.42.41-2.87.62-4.34h9.66l.13-.07,16.54,0ZM157.86,312l30.61,0-.62,4.38-30.82,0C157.3,314.92,157.58,313.45,157.86,312Zm-31.4,16.66-.74,3.92-25.36,0c.18-1.27.37-2.58.56-3.93Zm39.88,24.76a42.8,42.8,0,0,1-5.77-8.64h7ZM154,332.52c.24-1.27.49-2.58.74-3.92l31.38,0-.56,3.91Zm-28.28-64.17a71,71,0,0,0,5.94,22.82H121l2.05-3.84C123.77,282,124.7,275.37,125.71,268.35Z" transform="translate(-41.19 -25.66)"/><polygon points="278.29 215.05 216.29 215.12 213.11 241.34 275.11 241.28 278.29 215.05"/><polygon points="272.62 255.69 210.63 255.76 207.45 280.88 269.44 280.81 272.62 255.69"/><path d="M282.41,314.57c-20,36.74-30.58,32.86-37.84,34.26l-6,37.73c17.15-4.18,56.92-19.38,72.15-71.95Z" transform="translate(-41.19 -25.66)"/><path d="M361.58,309.05l53.21-.11,3.26-23.2-36.85.07q.74-5.22,1.55-11l31.06,0,3.05-23.2-30.81,0c1.46-10.27,3-21,4.52-31.7H365.13l-4.51,31.71-28.37,0-3,23.2,28.12,0-1.56,11-37.55.08-3.42,23.2,18.95,0c-9.28,29.08-26,35.44-32.63,36.72l-6,37.72c.57-.13,1.17-.3,1.79-.49l80.34-.13c1.65,3.72,2.76,5.71,2.76,5.71h25.18l5.54-39.3c-11.67-2.25-13-8-20.8-24.07H364a180.14,180.14,0,0,0,4,29.24l-32.7.05A143.44,143.44,0,0,0,361.58,309.05Z" transform="translate(-41.19 -25.66)"/><path d="M623.77,324.76c2.57-17.18,9.56-71.74,13.08-94.95H601.51v0l-99.86.19,0-.21H466.34L451,345.79h21.53c-9.23,9.12-15.36,7.8-20.09,8.71l-6,37.73a97.4,97.4,0,0,0,62.64-48.53l67.88-.13c4.3,29.09,14.25,46.82,14.25,46.82H616.4l5.53-39.3c-7.89-1.52-11.07-4.64-14.7-11.47h8.09Zm-26.44-65-7.5,53.84-99.06.19c2-15.11,4.53-35.68,6.87-53.83Z" transform="translate(-41.19 -25.66)"/><rect x="823.54" y="345.31" width="17.59" height="17.59"/><rect x="862.72" y="345.31" width="17.59" height="17.59"/><rect x="901.89" y="345.31" width="17.59" height="17.59"/><polygon class="cls-2" points="895.73 222.57 916.22 199.88 914.66 230.41 945.2 228.85 922.5 249.34 945.2 269.83 914.66 268.27 916.22 298.8 895.73 276.11 875.25 298.8 876.8 268.27 846.27 269.83 868.97 249.34 846.27 228.85 876.8 230.41 875.25 199.88 895.73 222.57"/><polygon class="cls-3" points="838.5 146.97 852.77 139.47 850.04 155.36 861.58 166.6 845.63 168.92 838.5 183.38 831.37 168.92 815.42 166.6 826.96 155.36 824.24 139.47 838.5 146.97"/><polygon class="cls-4" points="79.76 469.08 86.89 497.56 107.3 476.46 99.24 504.68 127.47 496.62 106.37 517.03 134.84 524.16 106.37 531.29 127.47 551.7 99.24 543.63 107.3 571.86 86.89 550.76 79.76 579.24 72.64 550.76 52.22 571.86 60.29 543.63 32.06 551.7 53.16 531.29 24.68 524.16 53.16 517.03 32.06 496.62 60.29 504.68 52.22 476.46 72.64 497.56 79.76 469.08"/></svg>