<svg xmlns="http://www.w3.org/2000/svg" viewBox="0 0 463.02 708.04"><defs><style>.cls-1{fill:#fef001;}.cls-2{fill:#f60;}.cls-2,.cls-3,.cls-4{stroke:#000;stroke-miterlimit:10;}.cls-3{fill:lime;}.cls-4{fill:#00ffbc;}</style></defs><path class="cls-1" d="M469.89,94.77c-1.26,12.37-3.71,23.08-9.68,31.87-9.36,13.78-12.79,29.71-14,46.75a171.19,171.19,0,0,1-2.7,21c-1.42,7.41-3.74,14.49-8.55,19.72-9.43,10.26-13.7,23.24-15.65,37.76a194.74,194.74,0,0,1-4.56,24.57,46.73,46.73,0,0,1-11.94,21,36.55,36.55,0,0,0-9.67,18.84c-.52,2.53-1.37,4.06-3.73,4.75-3.5,1-6.3,3.81-9.21,6.2a16.52,16.52,0,0,1-16.6,3.17c-5.67-1.87-11.32-3.89-16.91-6.09-9.34-3.69-18.22-3.41-27.11,2.26-7.22,4.62-14.88,5.08-23,2.17s-16.08-6.32-24.57-7.38c-4.25-.53-8.51.13-11.88,2.91-11.88,9.78-24.28,7.41-36.87,3-5.11-1.79-10.15-3.91-15.39-5.21-6.4-1.58-13.06-1.88-18.63,1.92-10.82,7.36-21.28,5.71-32.07.74a85.23,85.23,0,0,0-13.37-5,20,20,0,0,0-17.36,3.15c-4.44,3-9,5.82-14.19,6.68-5.58.93-10.85-.59-16.15-2.15-5.73-1.69-11.45-3.41-17.19-5.07a23.37,23.37,0,0,0-18.33,1.8c-11.18,6.23-22.4,5.75-33.86,1.51-6-2.21-12-4.1-18.34-3.59-1.82.14-1.74-.77-1.33-2.36A52.81,52.81,0,0,1,14.05,304c8.46-12.92,11.44-27.85,12.67-43.68,1-12.28,2.27-24.55,7-35.87,1.67-4,4.39-6.92,7.22-9.64,9.53-9.16,13.3-21.53,14.77-35.39a231.17,231.17,0,0,1,3.22-23.29c1.52-7.24,3.63-14.25,7.91-19.72,8.72-11.15,12.66-24.49,14-39.14A6,6,0,0,1,84.1,92c7.8-4.76,15.75-6.21,24.19-2.6,2.61,1.13,5.41,1.65,8,2.75,9.45,4,18.8,4.2,28-.89,9.43-5.22,18.9-4.78,28.64-1.24,6.81,2.48,13.8,4.22,20.68,6.44,6.05,2,11.64,1,17-2.94,3.76-2.81,7.62-5.36,12.1-6.39,5-1.15,9.75.31,14.42,2.07,5.94,2.24,11.86,4.57,17.73,7,7.75,3.26,15.53,3.47,22.69-1.28,11.7-7.77,23.1-7.88,35-.82C317,96.78,322,98,327,98.67a17,17,0,0,0,14-3.85c8.46-7.17,17.42-7.89,27-4.26,5.2,2,10.45,3.69,15.69,5.5a21.21,21.21,0,0,0,19.73-2.54c10-6.86,20.2-6.22,30.66-2.27,3.19,1.2,6.35,2.49,9.54,3.68C452.15,98.1,460.68,100.78,469.89,94.77Z" transform="translate(-6.87 -25.66)"/><path d="M151.19,122.54l50.07-.05c-2.61,6.15-5.1,11.68-7.06,15.91A27.9,27.9,0,0,1,185,127.79H145.52a58.65,58.65,0,0,0,6.53,23.61c-11.33,14.42-21.44,13.64-22.24,13.54l-6,30.71c11.89-2.9,31.11-6,45.68-21.75a122.41,122.41,0,0,0,29.71,20.37H227.3l6.18-43.89c-2.15-.41-4.68-.82-7.43-1.28a231,231,0,0,0,12.76-27.9h0c1.38-3.77,2.59-7.52,3.52-11.16h-.06c.1-.44.18-.88.24-1.34.44-3.15.87-6.29,1.3-9.44l-87.89.13Q153.57,111,151.19,122.54Z" transform="translate(-6.87 -25.66)"/><polygon points="135.1 23.73 73.1 23.77 69.94 53.99 131.94 53.95 135.1 23.73"/><polygon points="129.44 64.01 67.44 64.08 64.26 88.81 126.26 88.74 129.44 64.01"/><path d="M104.9,122.89c-20,36.75-36,34.23-37.83,34.26l-6,37.73c17.14-4.18,56.92-19.37,72.14-71.95Z" transform="translate(-6.87 -25.66)"/><path d="M251.52,38h0q.53-3.75,1-7.5l-56.45.06q.78-2.48,1.4-4.89H160.94c-7.48,19.24-16.18,36.86-16.18,36.86L142,81.67h28.94a289.79,289.79,0,0,0,15.7-28H210c-3.19,7.37-6.08,13.58-7.86,17.33L184.22,71l3.15,23,10.14,0v0h28.94s5-7.7,10.87-18.55a180,180,0,0,0,12.47-27.13A25.75,25.75,0,0,0,251,41.57l.49-3.58Z" transform="translate(-6.87 -25.66)"/><path d="M326.38,60.21l111-.05L440.59,37l-110.24.09V26.91H301.74V37.08l-22.69,0-4.73,23.14H295.2c-15.66,24.25-24.59,21.4-31,22.64l-6,37.72a98.89,98.89,0,0,0,25.51-10.25l-14.31,83.9h23.07l10.13-15.77c.78-4.57,1.62-9.54,2.52-14.81l94.43-.4-1.32,9.42-22.68-.07,3.15,23,16.31.06v0h19.23l8.45-16c3.21-23.08,7.89-56.21,12.22-86.95H435l3.19-23.2-116.29.54Q324.29,65.42,326.38,60.21Zm-17.32,80.3c.8-4.65,1.61-9.41,2.44-14.22l93.29-.4-2,14.19Zm99-37.8-92.59.43q.85-5,1.7-9.92l92.27-.38Z" transform="translate(-6.87 -25.66)"/><path d="M301.88,460.69a110.92,110.92,0,0,0,4.68-10.22l111-.06,3.19-23.19-110.24.09V417.17H281.91v10.16l-22.68,0-4.73,23.14h20.88c-15.67,24.25-24.59,21.41-31,22.64l-6,37.72a98.88,98.88,0,0,0,32-14.34l-12.5,88h19.22l8.45-15.78c.64-4.57,1.35-9.55,2.09-14.82l92.07-.38-1.32,9.41-21.52-.07,3.15,23,15.15,0v0H394.4l8.45-16c3.2-23,7.86-55.95,12.18-86.58h0l.61-4.44c.39-2.76.77-5.5,1.16-8.2h0l1.45-10.56ZM291,530.76q1-7,2-14.23l92-.38-2,14.18ZM388.23,493l-91.94.43c.45-3.2.91-6.39,1.36-9.55l91.91-.38Z" transform="translate(-6.87 -25.66)"/><path d="M224.12,249.75l2.46-19.46-53.15.06,1.13-8.22-62,.08-1.13,8.22-48.62.06L61,249.9h.14l-20,140.69H60.41l8.45-15.77c4.69-33.24,12.49-87.6,17.78-124.94l30.42,0-.83,5.84-14.53,0-2,11.6h4.07C96.94,279,93.19,277.67,90.57,278.17l-2.31,14.48A37.52,37.52,0,0,0,114.19,270l-3.45,24.29h2.5a17,17,0,0,1-3.22,3.51l-22.18,0-.48,5.29L81.45,344.7h8.19v.12l19.41,0c-11.31,11.78-26.42,14.88-31.75,15.91l-4.79,30c14.25-3.47,47.64-7.05,63.42-44.92h1a114.28,114.28,0,0,0,17.33,44.34H210.1l2.11-16.63c-5.61-.79-14.82-2.05-24.23-5.61l10.11,0a29.63,29.63,0,0,0,1.27,2.68h9.39l2.07-14.65c-4.35-.84-4.86-3-7.76-9h-9.64a70.06,70.06,0,0,0,.83,7.51l-16.4.07c.43-3.06.9-6.34,1.38-9.74h4.58v.09h13l5.71-10.66c1.33-9.45,3-21.42,4.83-34H207l.31-2.44-77.25.1a22.37,22.37,0,0,0,2.65-5.17h10.65l2.41-17.13c-4.51-.87-5.49-2.94-8-8.29l7.2,0,2-11.6-19.42,0c.27-1.95.55-3.9.83-5.82l52-.05-.84,5.89-18.11,0-2,11.6,11.46,0C164,279,160.23,277.67,157.61,278.17l-2.31,14.48A37.44,37.44,0,0,0,176.15,279L174,294.33h8.52l3.75-7c.8-5.64,1.79-12.65,2.85-20.08h.27c1.3,15.61,6.79,25.4,6.79,25.4h11l2.42-17.13c-4.52-.87-5.5-2.94-8-8.3h3.1l2-11.6-15.83,0q.42-3,.84-5.87Zm-95.35,66.64-26.12,0c.21-1.42.41-2.87.62-4.34h9.66l.13-.07,16.54,0ZM157.86,312l30.61,0-.62,4.38-30.82,0C157.3,314.92,157.58,313.45,157.86,312Zm-31.4,16.66-.74,3.92-25.36,0c.18-1.27.37-2.58.56-3.93Zm39.88,24.76a42.8,42.8,0,0,1-5.77-8.64h7ZM154,332.52c.24-1.27.49-2.58.74-3.92l31.38,0-.56,3.91Zm-28.28-64.17a71,71,0,0,0,5.94,22.82H121l2.05-3.84C123.77,282,124.7,275.37,125.71,268.35Z" transform="translate(-6.87 -25.66)"/><polygon points="312.61 215.05 250.61 215.12 247.43 241.34 309.43 241.28 312.61 215.05"/><polygon points="306.94 255.69 244.95 255.76 241.77 280.88 303.76 280.81 306.94 255.69"/><path d="M282.41,314.57c-20,36.74-30.58,32.86-37.84,34.26l-6,37.73c17.15-4.18,56.92-19.38,72.15-71.95Z" transform="translate(-6.87 -25.66)"/><path d="M361.58,309.05l53.21-.11,3.26-23.2-36.85.07q.74-5.22,1.55-11l31.06,0,3.05-23.2-30.81,0c1.46-10.27,3-21,4.52-31.7H365.13l-4.51,31.71-28.37,0-3,23.2,28.12,0-1.56,11-37.55.08-3.42,23.2,18.95,0c-9.28,29.08-26,35.44-32.63,36.72l-6,37.72c.57-.13,1.17-.3,1.79-.49l80.34-.13c1.65,3.72,2.76,5.71,2.76,5.71h25.18l5.54-39.3c-11.67-2.25-13-8-20.8-24.07H364a180.14,180.14,0,0,0,4,29.24l-32.7.05A143.44,143.44,0,0,0,361.58,309.05Z" transform="translate(-6.87 -25.66)"/><path d="M209.72,519.88c2.57-17.17,9.56-71.73,13.07-94.95H187.46v0l-99.86.2,0-.22H52.29L37,540.91H58.51c-9.23,9.13-15.36,7.8-20.09,8.72l-6,37.72A97.38,97.38,0,0,0,95,538.83l67.88-.13c4.3,29.09,14.25,46.81,14.25,46.81h25.19l5.53-39.29c-7.89-1.52-11.07-4.64-14.7-11.48h8.09Zm-26.44-65-7.5,53.83-99.06.19c2-15.11,4.53-35.67,6.87-53.83Z" transform="translate(-6.87 -25.66)"/><rect x="34.32" y="623.32" width="17.59" height="17.59"/><rect x="73.5" y="623.32" width="17.59" height="17.59"/><rect x="112.67" y="623.32" width="17.59" height="17.59"/><polygon class="cls-2" points="241.99 657.31 249.75 648.71 249.16 660.28 260.73 659.69 252.13 667.45 260.73 675.21 249.16 674.62 249.75 686.19 241.99 677.59 234.22 686.19 234.82 674.62 223.25 675.21 231.84 667.45 223.25 659.69 234.82 660.28 234.22 648.71 241.99 657.31"/><polygon class="cls-3" points="218.99 619.71 226.81 615.6 225.31 624.3 231.64 630.47 222.9 631.74 218.99 639.66 215.08 631.74 206.34 630.47 212.66 624.3 211.17 615.6 218.99 619.71"/><polygon class="cls-4" points="331.09 615.6 336.94 638.96 353.69 621.65 347.07 644.81 370.23 638.19 352.92 654.94 376.29 660.79 352.92 666.64 370.23 683.39 347.07 676.77 353.69 699.93 336.94 682.62 331.09 705.98 325.24 682.62 308.5 699.93 315.11 676.77 291.95 683.39 309.27 666.64 285.9 660.79 309.27 654.94 291.95 638.19 315.11 644.81 308.5 621.65 325.24 638.96 331.09 615.6"/></svg>